<svg xmlns="http://www.w3.org/2000/svg" width="960" height="810" viewBox="0 0 960 810">
<defs>
<linearGradient id="bg" x1="0" y1="0" x2="1" y2="1"><stop stop-color="#050816"/><stop offset="1" stop-color="#0b1020"/></linearGradient>
<linearGradient id="name" x1="0" y1="0" x2="1" y2="0"><stop stop-color="#f8fafc"/><stop offset=".6" stop-color="#67e8f9"/><stop offset="1" stop-color="#a78bfa"/></linearGradient>
<filter id="glow"><feGaussianBlur stdDeviation="4" result="b"/><feMerge><feMergeNode in="b"/><feMergeNode in="SourceGraphic"/></feMerge></filter>
<style>
.title{fill:#f8fafc;font:600 17px monospace}
.desc{fill:#94a3b8;font:13px monospace}
.meta{fill:#64748b;font:12px monospace}
.label{fill:#22d3ee;font:12px monospace;letter-spacing:2px}
.hero{fill:url(#name);font:700 40px monospace;letter-spacing:3px}
.sub{fill:#94a3b8;font:14px monospace}
.role{fill:#67e8f9;font:600 15px monospace;opacity:0;animation:role 9s infinite backwards}
.r2{animation-delay:3s}.r3{animation-delay:6s}
.num{fill:#f8fafc;font:700 30px monospace}
.cursor{animation:blink 1s steps(2,start) infinite}
.pulse{animation:pulse 3s ease-in-out infinite}
.scan{animation:scan 6s linear infinite}
@keyframes role{0%{opacity:0}5%{opacity:1}30%{opacity:1}35%{opacity:0}100%{opacity:0}}
@keyframes blink{50%{opacity:0}}
@keyframes pulse{50%{opacity:.3}}
@keyframes scan{from{transform:translateY(0)}to{transform:translateY(810px)}}
</style></defs>
<rect width="960" height="810" rx="18" fill="url(#bg)"/>
<rect x="1" y="1" width="958" height="808" rx="18" fill="none" stroke="#1e293b"/>
<g opacity=".14" stroke="#334155"><path d="M0 110H960M0 240H960M0 350H960M0 680H960"/><path d="M160 0V810M320 0V810M640 0V810M800 0V810"/></g>
<rect class="scan" x="0" y="-60" width="960" height="60" fill="#22d3ee" opacity=".04"/>
<circle cx="830" cy="92" r="95" fill="#22d3ee" opacity=".08" class="pulse"/>
<circle cx="120" cy="700" r="110" fill="#a78bfa" opacity=".05" class="pulse"/>

<text x="40" y="45" class="label">AMAN // GITHUB COMMAND CENTER</text>
<circle cx="880" cy="39" r="6" fill="#22c55e" filter="url(#glow)" class="pulse"/>
<text x="895" y="44" class="meta">ONLINE</text>
<text x="40" y="95" class="hero">AMAN NARANG</text>
<text x="42" y="126" class="role">&gt; AI / ML developer<tspan class="cursor">_</tspan></text>
<text x="42" y="126" class="role r2">&gt; Full-stack builder<tspan class="cursor">_</tspan></text>
<text x="42" y="126" class="role r3">&gt; Product-focused engineer<tspan class="cursor">_</tspan></text>


<g transform="translate(40,150)">
  <rect width="205" height="78" rx="12" fill="#0b1220" stroke="#233247"/>
  <rect x="0" y="0" width="205" height="3" rx="1.5" fill="#22d3ee" opacity=".9"/>
  <text x="18" y="46" class="num">43</text>
  <text x="18" y="66" class="meta">REPOSITORIES</text>
</g>
<g transform="translate(265,150)">
  <rect width="205" height="78" rx="12" fill="#0b1220" stroke="#233247"/>
  <rect x="0" y="0" width="205" height="3" rx="1.5" fill="#fbbf24" opacity=".9"/>
  <text x="18" y="46" class="num">1</text>
  <text x="18" y="66" class="meta">TOTAL STARS</text>
</g>
<g transform="translate(490,150)">
  <rect width="205" height="78" rx="12" fill="#0b1220" stroke="#233247"/>
  <rect x="0" y="0" width="205" height="3" rx="1.5" fill="#a78bfa" opacity=".9"/>
  <text x="18" y="46" class="num">0</text>
  <text x="18" y="66" class="meta">TOTAL FORKS</text>
</g>
<g transform="translate(715,150)">
  <rect width="205" height="78" rx="12" fill="#0b1220" stroke="#233247"/>
  <rect x="0" y="0" width="205" height="3" rx="1.5" fill="#34d399" opacity=".9"/>
  <text x="18" y="46" class="num">0</text>
  <text x="18" y="66" class="meta">FOLLOWERS</text>
</g>

<text x="40" y="252" class="label">LANGUAGE MIX</text>
<rect x="40.0" y="262" width="258.7" height="12" rx="3" fill="#3776AB"/><rect x="300.7" y="262" width="193.6" height="12" rx="3" fill="#E34F26"/><rect x="496.3" y="262" width="161.0" height="12" rx="3" fill="#F7DF1E"/><rect x="659.3" y="262" width="128.4" height="12" rx="3" fill="#1572B6"/><rect x="789.6" y="262" width="63.2" height="12" rx="3" fill="#3178C6"/><rect x="854.8" y="262" width="30.6" height="12" rx="3" fill="#ED8B00"/>
<circle cx="45" cy="300" r="5" fill="#3776AB"/><text x="58" y="304" class="meta">Python · 30%</text><circle cx="340" cy="300" r="5" fill="#E34F26"/><text x="353" y="304" class="meta">HTML · 22%</text><circle cx="635" cy="300" r="5" fill="#F7DF1E"/><text x="648" y="304" class="meta">JavaScript · 19%</text><circle cx="45" cy="322" r="5" fill="#1572B6"/><text x="58" y="326" class="meta">CSS · 15%</text><circle cx="340" cy="322" r="5" fill="#3178C6"/><text x="353" y="326" class="meta">TypeScript · 7%</text><circle cx="635" cy="322" r="5" fill="#ED8B00"/><text x="648" y="326" class="meta">Java · 4%</text>

<text x="40" y="368" class="label">LIVE PROJECT MATRIX</text>

<g transform="translate(40,380)">
  <rect width="285" height="112" rx="12" fill="#0b1220" stroke="#233247"/>
  <rect width="4" height="112" rx="2" fill="#3776AB"/>
  <text x="18" y="30" class="title">open-supply-env</text>
  <text x="18" y="54" class="desc">No description yet</text>
  <circle cx="20" cy="88" r="5" fill="#3776AB"/>
  <text x="32" y="92" class="meta">Python</text>
  <text x="165" y="92" class="meta">★ 1</text>
  <text x="205" y="92" class="meta">fork 0</text>
</g>
<g transform="translate(335,380)">
  <rect width="285" height="112" rx="12" fill="#0b1220" stroke="#233247"/>
  <rect width="4" height="112" rx="2" fill="#3776AB"/>
  <text x="18" y="30" class="title">amannarang04</text>
  <text x="18" y="54" class="desc">No description yet</text>
  <circle cx="20" cy="88" r="5" fill="#3776AB"/>
  <text x="32" y="92" class="meta">Python</text>
  <text x="165" y="92" class="meta">★ 0</text>
  <text x="205" y="92" class="meta">fork 0</text>
</g>
<g transform="translate(630,380)">
  <rect width="285" height="112" rx="12" fill="#0b1220" stroke="#233247"/>
  <rect width="4" height="112" rx="2" fill="#3776AB"/>
  <text x="18" y="30" class="title">rag_chatbot</text>
  <text x="18" y="54" class="desc">No description yet</text>
  <circle cx="20" cy="88" r="5" fill="#3776AB"/>
  <text x="32" y="92" class="meta">Python</text>
  <text x="165" y="92" class="meta">★ 0</text>
  <text x="205" y="92" class="meta">fork 0</text>
</g>
<g transform="translate(40,505)">
  <rect width="285" height="112" rx="12" fill="#0b1220" stroke="#233247"/>
  <rect width="4" height="112" rx="2" fill="#22D3EE"/>
  <text x="18" y="30" class="title">password-manager</text>
  <text x="18" y="54" class="desc">No description yet</text>
  <circle cx="20" cy="88" r="5" fill="#22D3EE"/>
  <text x="32" y="92" class="meta">Code</text>
  <text x="165" y="92" class="meta">★ 0</text>
  <text x="205" y="92" class="meta">fork 0</text>
</g>
<g transform="translate(335,505)">
  <rect width="285" height="112" rx="12" fill="#0b1220" stroke="#233247"/>
  <rect width="4" height="112" rx="2" fill="#ED8B00"/>
  <text x="18" y="30" class="title">codecrafter-shell</text>
  <text x="18" y="54" class="desc">No description yet</text>
  <circle cx="20" cy="88" r="5" fill="#ED8B00"/>
  <text x="32" y="92" class="meta">Java</text>
  <text x="165" y="92" class="meta">★ 0</text>
  <text x="205" y="92" class="meta">fork 0</text>
</g>
<g transform="translate(630,505)">
  <rect width="285" height="112" rx="12" fill="#0b1220" stroke="#233247"/>
  <rect width="4" height="112" rx="2" fill="#89E051"/>
  <text x="18" y="30" class="title">codecrafters-shell</text>
  <text x="18" y="54" class="desc">No description yet</text>
  <circle cx="20" cy="88" r="5" fill="#89E051"/>
  <text x="32" y="92" class="meta">Shell</text>
  <text x="165" y="92" class="meta">★ 0</text>
  <text x="205" y="92" class="meta">fork 0</text>
</g>

<rect x="40" y="640" width="880" height="140" rx="12" fill="#070d19" stroke="#1e293b"/>
<text x="62" y="668" class="label">RECENT ACTIVITY</text>
<text x="62" y="704" class="sub"><tspan fill="#22c55e">&gt;</tspan> pushed 1 commit to rag_chatbot</text><text x="900" y="704" class="meta" text-anchor="end">1d ago</text><text x="62" y="728" class="sub"><tspan fill="#22c55e">&gt;</tspan> created branch in amannarang04</text><text x="900" y="728" class="meta" text-anchor="end">1d ago</text><text x="62" y="752" class="sub"><tspan fill="#22c55e">&gt;</tspan> pushed 1 commit to rag_chatbot</text><text x="900" y="752" class="meta" text-anchor="end">1d ago</text><text x="62" y="776" class="sub"><tspan fill="#22c55e">&gt;</tspan> pushed 1 commit to amannarang04</text><text x="900" y="776" class="meta" text-anchor="end">1d ago</text>

<text x="920" y="632" class="meta" text-anchor="end">AUTO-UPDATED • 2026-10-08 06:22 UTC</text>
</svg>